<svg width="303" height="152" viewBox="0 0 303 152" fill="none" xmlns="http://www.w3.org/2000/svg">
<path d="M262.229 56.9552C260.268 56.9552 258.686 55.3682 258.686 53.4011V37.687H257.394C249.284 37.687 246.277 39.0282 246.277 46.4494V63.7952C246.277 63.7952 246.277 63.8623 246.277 63.907V67.707C246.277 67.8411 246.277 67.9529 246.277 68.087V92.3176C246.277 95.2682 245.697 97.6376 244.539 99.4705C242.333 102.891 237.944 104.433 230.948 104.455C223.953 104.455 219.564 102.891 217.358 99.4705C216.177 97.6376 215.62 95.2905 215.62 92.3176V68.087C215.62 67.9529 215.62 67.8188 215.62 67.707V63.907C215.62 63.907 215.62 63.84 215.62 63.7952V46.4494C215.62 39.0282 212.612 37.687 204.503 37.687H201.941C193.831 37.687 190.823 39.0282 190.823 46.4494V92.3176C190.823 99.6941 192.472 105.953 195.68 110.982C201.874 120.751 213.86 125.936 230.904 125.936C230.904 125.936 230.948 125.936 230.971 125.936C230.993 125.936 231.015 125.936 231.037 125.936C248.081 125.936 260.068 120.728 266.261 110.982C269.469 105.953 271.118 99.6941 271.118 92.3176V56.9776H262.295L262.229 56.9552Z" fill="#002124"/>
<path d="M299.703 12.7859H286.357C284.905 12.7859 283.728 13.9668 283.728 15.4235V28.9694C283.728 30.4262 284.905 31.6071 286.357 31.6071H299.703C301.155 31.6071 302.332 30.4262 302.332 28.9694V15.4235C302.332 13.9668 301.155 12.7859 299.703 12.7859Z" fill="#002124"/>
<path d="M281.946 0H272.878C271.894 0 271.096 0.80062 271.096 1.78824V10.9976C271.096 11.9853 271.894 12.7859 272.878 12.7859H281.946C282.93 12.7859 283.728 11.9853 283.728 10.9976V1.78824C283.728 0.80062 282.93 0 281.946 0Z" fill="#002124"/>
<path d="M35.246 37.6648H15.8406C5.48068 37.6648 0.846558 42.2919 0.846558 52.7083V119.499C0.846558 123.522 2.13876 124.797 6.12678 124.797H7.44126C11.4516 124.797 12.7215 123.5 12.7215 119.499V93.5024H35.2237C55.186 93.5024 64.4988 84.6283 64.4988 65.5836C64.4988 46.5389 55.2083 37.6648 35.2237 37.6648H35.246ZM52.6239 65.5836C52.6239 76.4695 49.8613 82.3707 35.246 82.3707H12.7438V54.273C12.7438 50.3836 14.1919 48.9307 18.0685 48.9307H35.246C46.252 48.9307 52.6239 51.6577 52.6239 65.5836Z" fill="#002124"/>
<path d="M89.4964 56.8213C81.81 56.8213 76.9976 57.7825 75.1707 58.1625C71.9402 58.8778 70.5811 59.7495 70.5811 63.4601V64.5107C70.5811 65.9636 70.8039 66.9695 71.2495 67.6625C71.7842 68.4895 72.6309 68.8919 73.8117 68.8919C74.3686 68.8919 75.037 68.8025 75.8168 68.6013C77.666 68.1319 83.57 67.1707 90.0311 67.1707C101.639 67.1707 106.362 70.3895 106.362 78.3025V85.366H91.7243C72.9205 85.366 64.1647 91.7366 64.1647 105.394C64.1647 119.052 73.2101 125.959 89.63 125.959C109.147 125.959 117.858 119.298 117.858 104.344V78.3025C117.858 63.8401 108.59 56.8213 89.4964 56.8213ZM106.362 94.7766V103.941C106.362 111.407 103.599 115.721 89.4964 115.721C80.1836 115.721 75.6608 112.346 75.6608 105.372C75.6608 97.7495 80.2058 94.7766 91.858 94.7766H106.362Z" fill="#002124"/>
<path d="M182.179 59.9284C181.354 58.8778 179.773 58.7437 178.213 58.7437H177.032C173.111 58.7437 171.574 59.9507 170.727 63.7284L159.855 109.082C158.496 114.648 156.58 115.677 153.327 115.677C149.339 115.677 147.735 114.715 146.131 109.06L133.81 63.706C132.785 59.906 131.293 58.7437 127.371 58.7437H126.324C124.742 58.7437 123.161 58.9001 122.358 59.9507C121.556 61.0013 121.824 62.5884 122.247 64.1531L134.701 109.91C137.041 118.672 139.803 125.914 150.185 125.914C152.124 125.914 153.906 125.646 155.399 125.132C152.257 135.057 149.049 139.438 139.625 140.399C137.709 140.555 136.461 140.824 135.771 141.762C135.058 142.724 135.214 144.11 135.481 145.361L135.748 146.524C136.305 149.228 137.263 150.927 140.316 150.927C140.628 150.927 140.984 150.927 141.341 150.882C155.421 149.966 162.974 142.344 167.407 124.618L182.491 64.1084C182.847 62.566 183.07 60.9789 182.246 59.9284H182.179Z" fill="#002124"/>
<path d="M280.186 31.6072H262.229C260.268 31.6072 258.686 33.1942 258.686 35.1613V37.6648H259.934C268.044 37.6648 271.051 39.006 271.051 46.4272V56.9554H280.186C282.147 56.9554 283.728 55.3684 283.728 53.4013V35.1613C283.728 33.1942 282.147 31.6072 280.186 31.6072Z" fill="#002124"/>
</svg>
