<svg width="101" height="44" viewBox="0 0 101 44" fill="none" xmlns="http://www.w3.org/2000/svg">
<g clip-path="url(#clip0_1379_2564)">
<path d="M59.1386 18.5968C56.7865 18.5968 55.4116 20.1866 55.4116 20.1866V14.1968H53.2671V29.5452H55.2992V28.1015C55.2992 28.1015 56.6136 29.7687 59.1386 29.7687C62.0959 29.7687 64.3529 27.3538 64.3529 24.1827C64.3529 21.0116 62.1738 18.5968 59.1386 18.5968ZM58.6976 27.8179C57.7377 27.8179 56.873 27.4569 56.259 26.7952C55.6451 26.1335 55.2992 25.2054 55.2992 24.1827C55.2992 22.0429 56.7001 20.5476 58.6976 20.5476C60.6951 20.5476 62.0959 22.0429 62.0959 24.1827C62.0959 26.3226 60.7297 27.8179 58.6976 27.8179Z" fill="#0D0D0D"/>
<path d="M69.6972 29.76C71.7466 29.76 72.9832 28.7287 73.649 27.9639V29.5365H75.5947V22.5326C75.5947 20.1436 73.7009 18.5967 70.9943 18.5967C68.746 18.5967 66.8869 19.7482 66.1173 21.6045L68.011 22.2404C68.4693 21.0889 69.5502 20.41 70.9338 20.41C72.9054 20.41 73.5366 21.4154 73.5366 21.974C73.5366 22.6186 73.0351 22.8248 72.6027 22.8764L69.2476 23.3146C66.2383 23.7271 65.8492 25.6607 65.8492 26.6146C65.8405 27.9553 66.6188 29.76 69.6972 29.76ZM69.654 24.8959L72.153 24.5607C72.6373 24.5006 73.1821 24.3975 73.5366 24.0709V25.1967C73.5366 26.2537 72.4298 27.9896 70.0518 27.9896C68.4001 27.9896 68.0802 27.0701 68.0369 26.4857C67.9851 25.6865 68.5904 25.0248 69.654 24.8959Z" fill="#0D0D0D"/>
<path d="M83.3856 20.5819C85.7463 20.5819 86.1008 22.4983 86.1008 23.3147V29.5366H88.3145V23.3147C88.3145 20.8483 86.9569 18.5881 83.8526 18.5881C81.9588 18.5881 80.8087 19.5592 80.1688 20.2725V18.8116H78.1367V29.5366H80.2812V23.753C80.2726 22.5928 80.9471 20.5819 83.3856 20.5819Z" fill="#0D0D0D"/>
<path d="M98.1548 29.5452H100.931L96.0103 23.246L100.688 18.8202H97.9473L92.9751 23.5296V14.1968H90.8306V29.5452H92.9751V26.039L94.3846 24.7069L98.1548 29.5452Z" fill="#0D0D0D"/>
<path d="M0 15.675C0 10.1922 0 7.44219 1.07226 5.34531C2.01481 3.49766 3.52808 2.00234 5.3786 1.06562C7.48853 0 10.2556 0 15.7726 0H28.5014C34.0183 0 36.7854 0 38.8954 1.06562C40.7459 2.00234 42.2592 3.50625 43.2017 5.34531C44.274 7.44219 44.274 10.1922 44.274 15.675V28.325C44.274 33.8078 44.274 36.5578 43.2017 38.6547C42.2592 40.4937 40.7459 41.9977 38.8954 42.9344C36.7854 44 34.0183 44 28.5014 44H15.7726C10.2556 44 7.48853 44 5.3786 42.9344C3.51943 41.9977 2.01481 40.4937 1.07226 38.6547C0 36.5578 0 33.8078 0 28.325V15.675Z" fill="#0D0D0D"/>
<path d="M18.0296 21.4156H14.7523V25.7296C14.7523 26.6578 15.3922 27.0703 16.1531 27.0703C16.7584 27.0703 17.4502 26.9242 18.0382 26.6578V29.3304C17.407 29.5882 16.6114 29.7429 15.7035 29.7429C13.3082 29.7429 11.7949 28.1617 11.7949 25.9187V21.407H9.05371V18.7343H11.8035V15.95H14.7609V18.7343H18.0382L18.0296 21.4156Z" fill="#FF6600"/>
<path d="M30.9487 15.2969C30.9487 14.1969 31.7962 13.3547 32.8944 13.3547C33.9926 13.3547 34.84 14.1969 34.84 15.2969C34.84 16.3969 33.9926 17.2391 32.8944 17.2391C31.7875 17.2391 30.9487 16.3969 30.9487 15.2969ZM31.3984 18.7516H34.3817L34.373 29.5454H31.3897L31.3984 18.7516Z" fill="#FF6600"/>
<path d="M25.2846 18.5368C23.9096 18.5368 22.7682 19.0868 22.0505 19.8258V14.2141H19.0931L19.0845 29.5368H21.8948V28.2735C22.7163 29.1758 24.0739 29.7516 25.3191 29.7516C28.5359 29.7516 30.5594 27.2422 30.5594 24.1485C30.5594 21.0547 28.5186 18.5454 25.2846 18.5368ZM24.6965 27.036C23.0882 27.036 21.9554 25.7813 21.9554 24.1399C21.9554 22.4899 23.0709 21.2438 24.7311 21.2438C26.3914 21.2438 27.4204 22.5586 27.4204 24.1399C27.4204 25.7211 26.279 27.036 24.6965 27.036Z" fill="#FF6600"/>
</g>
<defs>
<clipPath id="clip0_1379_2564">
<rect width="101" height="44" fill="white"/>
</clipPath>
</defs>
</svg>
