<svg width="115" height="52" viewBox="0 0 115 52" fill="none" xmlns="http://www.w3.org/2000/svg">
<path d="M90.1852 15.1333C96.7351 15.1333 102.071 20.4916 102.071 27.069C102.071 33.6464 96.7351 39.0047 90.1852 39.0047C83.6352 39.0047 78.2992 33.6464 78.2992 27.069C78.2992 20.4916 83.6352 15.1333 90.1852 15.1333ZM90.1852 9.17963C80.3602 9.17963 72.3704 17.2029 72.3704 27.069C72.3704 36.935 80.3602 44.9583 90.1852 44.9583C100.01 44.9583 108 36.935 108 27.069C108 17.2029 100.01 9.17963 90.1852 9.17963Z" fill="#20A7B3"/>
<path d="M22.342 8.15899H39.8745V12.043H26.5487V23.9787V27.8061V44.0511H22.342V8.15899Z" fill="white"/>
<path fill-rule="evenodd" clip-rule="evenodd" d="M21.1833 7H41.0338V13.202H27.708V45.2101H21.1833V7ZM23.5013 9.31798V42.8921H25.39V10.8841H38.7158V9.31798H23.5013Z" fill="white"/>
<path fill-rule="evenodd" clip-rule="evenodd" d="M37.842 29.8689H12.0374V25.2329H37.842V29.8689Z" fill="white"/>
<path d="M12.2349 31.8035C9.89159 31.8035 8 29.904 8 27.5509C8 25.1978 9.89159 23.2983 12.2349 23.2983C14.5782 23.2983 16.4698 25.1978 16.4698 27.5509C16.4698 29.904 14.5782 31.8035 12.2349 31.8035Z" fill="white"/>
<path d="M65.5947 28.2597C65.0018 34.2984 59.92 39.0047 53.7652 39.0047C47.2153 39.0047 41.8793 33.6464 41.8793 27.069C41.8793 20.4916 47.2153 15.1333 53.7652 15.1333C57.5767 15.1333 60.9646 16.9477 63.1385 19.7261H70.0272C67.2322 13.489 61.021 9.17963 53.7652 9.17963C43.9403 9.17963 35.9504 17.2029 35.9504 27.069C35.9504 36.935 43.9403 44.9583 53.7652 44.9583C63.2232 44.9583 70.9307 37.5871 71.5236 28.2597H65.5947Z" fill="#20A7B3"/>
<path d="M86.0916 33.0793L91.5969 27.5509L86.0916 21.9942H90.7499L96.2835 27.5509L90.7499 33.0793H86.0916Z" fill="white"/>
<path fill-rule="evenodd" clip-rule="evenodd" d="M91.8508 30.0107H47.8079V25.3747H91.8508V30.0107Z" fill="white"/>
</svg>
