<?xml version="1.0" encoding="utf-8"?>
<!-- Generator: Adobe Illustrator 21.0.0, SVG Export Plug-In . SVG Version: 6.00 Build 0)  -->
<svg version="1.1" id="Layer_1" xmlns="http://www.w3.org/2000/svg" xmlns:xlink="http://www.w3.org/1999/xlink" x="0px" y="0px"
	 viewBox="0 0 166.5 27.9" style="enable-background:new 0 0 166.5 27.9;" xml:space="preserve">
<style type="text/css">
	.st0{fill:#0373A1;}
	.st1{opacity:0.61;}
</style>
<g>
	<g>
		<g>
			<g>
				<g>
					<path class="st0" d="M16.3,5.4L5.6,16.3c-1,1-2.6,1-3.7,0l-1.1-1.1c-1-1-1-2.6,0-3.7L11.6,0.8c1-1,2.6-1,3.6,0l1.1,1.1
						C17.3,2.9,17.3,4.4,16.3,5.4z"/>
				</g>
				<g class="st1">
					<path class="st0" d="M16.3,5.4L5.6,16.3c-1,1-2.6,1-3.7,0l-1.1-1.1c-1-1-1-2.6,0-3.7L11.6,0.8c1-1,2.6-1,3.6,0l1.1,1.1
						C17.3,2.9,17.3,4.4,16.3,5.4z"/>
				</g>
			</g>
			<g>
				<g>
					<path class="st0" d="M17.5,16.3L6.8,27c-1,1-2.6,1-3.7,0l-1-1.1c-1-1-1-2.6,0-3.6l10.7-10.7c1-1,2.6-1,3.7,0l1.1,1.1
						C18.5,13.6,18.5,15.3,17.5,16.3z"/>
				</g>
				<g class="st1">
					<path class="st0" d="M17.5,16.3L6.8,27c-1,1-2.6,1-3.7,0l-1-1.1c-1-1-1-2.6,0-3.6l10.7-10.7c1-1,2.6-1,3.7,0l1.1,1.1
						C18.5,13.6,18.5,15.3,17.5,16.3z"/>
				</g>
			</g>
		</g>
		<g>
			<g>
				<path class="st0" d="M38.8,22.2l-9.2-9.2c-0.1-0.1-0.2-0.3-0.3-0.4L28,11.4c-0.5-0.5-1.2-0.8-1.9-0.8c-0.7,0-1.4,0.2-1.9,0.8
					l-1.1,1.1c-0.1,0.1-0.2,0.3-0.3,0.4l-9.2,9.2c-1,1-1,2.6,0,3.6l1.1,1.1c1,1,2.6,1,3.6,0l7.8-7.8l7.8,7.8c1,1,2.6,1,3.7,0
					l1.1-1.1C39.8,24.9,39.8,23.2,38.8,22.2z"/>
			</g>
			<g class="st1">
				<path class="st0" d="M38.8,22.2l-9.2-9.2c-0.1-0.1-0.2-0.3-0.3-0.4L28,11.4c-0.5-0.5-1.2-0.8-1.9-0.8c-0.7,0-1.4,0.2-1.9,0.8
					l-1.1,1.1c-0.1,0.1-0.2,0.3-0.3,0.4l-9.2,9.2c-1,1-1,2.6,0,3.6l1.1,1.1c1,1,2.6,1,3.6,0l7.8-7.8l7.8,7.8c1,1,2.6,1,3.7,0
					l1.1-1.1C39.8,24.9,39.8,23.2,38.8,22.2z"/>
			</g>
		</g>
		<g>
			<g>
				<path class="st0" d="M49,14.6h-1.6c-1.1,0-2.1,0.7-2.4,1.7L43,14.4l7.8-7.8c1-1,1-2.6,0-3.7l-1.1-1.1c-1-1-2.6-1-3.7,0l-9.3,9.3
					c-0.1,0.1-0.2,0.2-0.3,0.3l-1.1,1.1c-0.5,0.5-0.8,1.2-0.8,1.9s0.2,1.3,0.8,1.9l1.1,1.1c0.1,0.1,0.2,0.2,0.3,0.3L46,27
					c1,1,2.6,1,3.7,0l1.1-1.1c0.5-0.5,0.8-1.2,0.8-1.9l0,0v-6.8C51.5,15.8,50.5,14.6,49,14.6z"/>
			</g>
			<g class="st1">
				<path class="st0" d="M49,14.6h-1.6c-1.1,0-2.1,0.7-2.4,1.7L43,14.4l7.8-7.8c1-1,1-2.6,0-3.7l-1.1-1.1c-1-1-2.6-1-3.7,0l-9.3,9.3
					c-0.1,0.1-0.2,0.2-0.3,0.3l-1.1,1.1c-0.5,0.5-0.8,1.2-0.8,1.9s0.2,1.3,0.8,1.9l1.1,1.1c0.1,0.1,0.2,0.2,0.3,0.3L46,27
					c1,1,2.6,1,3.7,0l1.1-1.1c0.5-0.5,0.8-1.2,0.8-1.9l0,0v-6.8C51.5,15.8,50.5,14.6,49,14.6z"/>
			</g>
		</g>
		<g>
			<g>
				<path class="st0" d="M79.1,22.2l-9.2-9.2c-0.1-0.1-0.2-0.3-0.3-0.4l-1.1-1.1c-0.5-0.5-1.2-0.8-1.9-0.8c-0.7,0-1.3,0.2-1.9,0.8
					l-1.1,1.1c-0.1,0.1-0.2,0.3-0.3,0.4L54,22.2c-1,1-1,2.6,0,3.6l1.1,1.1c1,1,2.6,1,3.7,0l7.8-7.8l7.8,7.8c1,1,2.6,1,3.7,0l1.1-1.1
					C80.1,24.9,80.1,23.2,79.1,22.2z"/>
			</g>
			<g class="st1">
				<path class="st0" d="M79.1,22.2l-9.2-9.2c-0.1-0.1-0.2-0.3-0.3-0.4l-1.1-1.1c-0.5-0.5-1.2-0.8-1.9-0.8c-0.7,0-1.3,0.2-1.9,0.8
					l-1.1,1.1c-0.1,0.1-0.2,0.3-0.3,0.4L54,22.2c-1,1-1,2.6,0,3.6l1.1,1.1c1,1,2.6,1,3.7,0l7.8-7.8l7.8,7.8c1,1,2.6,1,3.7,0l1.1-1.1
					C80.1,24.9,80.1,23.2,79.1,22.2z"/>
			</g>
		</g>
	</g>
	<g>
		<path class="st0" d="M85.6,24.7l2.8-0.4c0.1,0.5,0.4,0.9,0.7,1.2s0.9,0.4,1.5,0.4c0.7,0,1.2-0.1,1.6-0.4c0.2-0.2,0.4-0.4,0.4-0.7
			c0-0.2-0.1-0.4-0.2-0.5c-0.1-0.1-0.4-0.3-0.9-0.4c-2.2-0.5-3.6-0.9-4.2-1.3c-0.8-0.6-1.2-1.3-1.2-2.3c0-0.9,0.4-1.7,1.1-2.3
			s1.8-0.9,3.3-0.9c1.4,0,2.5,0.2,3.2,0.7s1.2,1.1,1.4,2.1l-2.6,0.5c-0.1-0.4-0.3-0.7-0.6-0.9S90.9,19,90.4,19
			c-0.7,0-1.2,0.1-1.6,0.3c-0.2,0.1-0.3,0.3-0.3,0.6c0,0.2,0.1,0.4,0.3,0.5c0.2,0.2,1.1,0.4,2.6,0.8s2.5,0.7,3.1,1.2
			c0.6,0.5,0.9,1.2,0.9,2c0,1-0.4,1.8-1.2,2.5s-2,1-3.5,1c-1.4,0-2.5-0.3-3.4-0.9C86.4,26.5,85.8,25.7,85.6,24.7z"/>
		<path class="st0" d="M97,22.3c0-0.9,0.2-1.8,0.7-2.6s1.1-1.5,1.9-2s1.7-0.7,2.8-0.7c1.6,0,2.9,0.5,3.9,1.5s1.5,2.3,1.5,3.9
			c0,1.6-0.5,2.9-1.5,3.9s-2.3,1.5-3.8,1.5c-1,0-1.9-0.2-2.7-0.6s-1.5-1.1-2-1.9S97,23.5,97,22.3z M99.8,22.5c0,1,0.2,1.8,0.7,2.4
			s1.1,0.8,1.8,0.8s1.3-0.3,1.8-0.8s0.7-1.3,0.7-2.4c0-1-0.2-1.8-0.7-2.3s-1.1-0.8-1.8-0.8s-1.3,0.3-1.8,0.8S99.8,21.4,99.8,22.5z"
			/>
		<path class="st0" d="M108.7,17.3h1.5v-0.8c0-0.9,0.1-1.5,0.3-2s0.5-0.8,1-1s1.1-0.4,1.9-0.4c0.8,0,1.5,0.1,2.3,0.4l-0.4,1.9
			c-0.4-0.1-0.9-0.2-1.3-0.2c-0.4,0-0.7,0.1-0.9,0.3s-0.3,0.5-0.3,1.1v0.7h2.1v2.2h-2.1v8.2h-2.7v-8.2h-1.5V17.3z"/>
		<path class="st0" d="M121.3,17.3v2.2h-1.9v4.2c0,0.8,0,1.3,0.1,1.5s0.1,0.3,0.2,0.3s0.3,0.1,0.5,0.1c0.3,0,0.6-0.1,1.1-0.3
			l0.2,2.1c-0.6,0.3-1.4,0.4-2.2,0.4c-0.5,0-0.9-0.1-1.3-0.2s-0.7-0.4-0.9-0.6s-0.3-0.6-0.4-1.1c-0.1-0.3-0.1-1-0.1-1.9v-4.5h-1.3
			v-2.2h1.3v-2.1l2.8-1.6v3.7H121.3z"/>
		<path class="st0" d="M125.1,27.7l-3.3-10.4h2.7l1.9,6.8l1.8-6.8h2.6l1.7,6.8l2-6.8h2.7L134,27.7h-2.6l-1.8-6.7l-1.8,6.7H125.1z"/>
		<path class="st0" d="M140.8,20.5l-2.5-0.4c0.3-1,0.8-1.7,1.4-2.2s1.7-0.7,3-0.7c1.2,0,2.1,0.1,2.7,0.4s1,0.7,1.3,1.1
			s0.4,1.3,0.4,2.5l0,3.2c0,0.9,0,1.6,0.1,2s0.3,0.9,0.5,1.4H145c-0.1-0.2-0.2-0.5-0.3-0.8c0-0.2-0.1-0.3-0.1-0.3
			c-0.5,0.5-1,0.8-1.5,1s-1.1,0.3-1.7,0.3c-1.1,0-1.9-0.3-2.5-0.9c-0.6-0.6-0.9-1.3-0.9-2.2c0-0.6,0.1-1.1,0.4-1.6s0.7-0.8,1.2-1.1
			s1.2-0.5,2.2-0.6c1.3-0.2,2.2-0.5,2.7-0.7v-0.3c0-0.5-0.1-0.9-0.4-1.1s-0.8-0.3-1.5-0.3c-0.5,0-0.9,0.1-1.1,0.3S141,20,140.8,20.5
			z M144.5,22.7c-0.4,0.1-0.9,0.3-1.7,0.4s-1.3,0.3-1.5,0.5c-0.4,0.3-0.5,0.6-0.5,1c0,0.4,0.1,0.7,0.4,1s0.7,0.4,1.1,0.4
			c0.5,0,1-0.2,1.4-0.5c0.3-0.2,0.5-0.6,0.7-0.9c0.1-0.2,0.1-0.7,0.1-1.3V22.7z"/>
		<path class="st0" d="M152.5,27.7h-2.7V17.3h2.5v1.5c0.4-0.7,0.8-1.2,1.2-1.4s0.7-0.3,1.2-0.3c0.6,0,1.2,0.2,1.8,0.5l-0.8,2.4
			c-0.5-0.3-0.9-0.4-1.3-0.4c-0.4,0-0.7,0.1-1,0.3s-0.5,0.6-0.6,1.1s-0.2,1.7-0.2,3.5V27.7z"/>
		<path class="st0" d="M163.7,24.4l2.7,0.5c-0.4,1-0.9,1.8-1.7,2.3s-1.7,0.8-2.8,0.8c-1.8,0-3.1-0.6-4-1.8c-0.7-0.9-1-2.1-1-3.6
			c0-1.7,0.4-3.1,1.3-4s2-1.5,3.4-1.5c1.5,0,2.8,0.5,3.7,1.5s1.3,2.6,1.3,4.7h-6.9c0,0.8,0.2,1.4,0.7,1.9s1,0.7,1.6,0.7
			c0.4,0,0.8-0.1,1.1-0.4S163.5,24.9,163.7,24.4z M163.8,21.6c0-0.8-0.2-1.4-0.6-1.8s-0.9-0.6-1.4-0.6c-0.6,0-1.1,0.2-1.5,0.7
			s-0.6,1-0.6,1.8H163.8z"/>
	</g>
</g>
</svg>
